<svg width="46" height="59" viewBox="0 0 46 59" fill="none" xmlns="http://www.w3.org/2000/svg">
<path d="M47.8099 57.3801C51.5858 56.165 55.1186 54.0873 58.0031 51.2473C64.5047 44.8439 67.4483 35.1029 65.6841 25.8285C64.0277 17.1182 58.2746 9.16626 50.2922 4.55859C42.8046 0.234107 33.3778 -0.605522 24.4312 2.25579C24.4063 2.26503 24.3807 2.27208 24.3558 2.28132C14.9944 5.29687 7.40687 11.8101 3.5288 20.1619C-0.831018 29.5528 -0.438227 40.9895 4.55211 50.0104C5.49899 51.7229 7.64707 52.3332 9.36559 51.3746C11.0768 50.416 11.6949 48.2515 10.748 46.539C6.83566 39.466 6.52757 30.4996 9.94577 23.1374C12.9418 16.6847 19.1262 11.4201 26.4949 9.04646C26.5147 9.04009 26.5344 9.03371 26.5528 9.02659C33.6078 6.77096 40.9665 7.38807 46.7404 10.7223C52.9714 14.3204 57.4538 20.4773 58.7295 27.1945C60.0344 34.0538 57.8075 41.51 53.0583 46.1874C48.2254 50.9487 40.5875 52.7762 34.484 50.6332C29.6118 48.9218 25.6067 44.3933 24.2798 39.0979C23.6253 36.4825 23.1126 31.4438 27.0422 27.091C29.3837 24.4975 33.0796 23.1748 36.2396 23.801C39.3937 24.4242 42.1175 27.1429 42.5783 30.1263C43.0329 33.0825 41.1635 36.3436 38.4942 37.2459C36.6395 37.8725 35.6332 39.888 36.2492 41.7484C36.8659 43.6072 38.8903 44.6271 40.725 43.9791C46.673 41.9698 50.5613 35.3921 49.5763 29.0057C48.6561 23.0434 43.7485 18.0358 37.6436 16.8281C32.0391 15.7223 25.8249 17.8817 21.8049 22.3351C17.3133 27.3114 15.7132 34.065 17.4132 40.8613C19.3279 48.5147 24.9629 54.8303 32.1173 57.3428C37.1148 59.0987 42.6865 59.0305 47.8099 57.3801Z" fill="#D48589"/>
</svg>
