<svg width="42" height="40" viewBox="0 0 42 40" fill="none" xmlns="http://www.w3.org/2000/svg">
<g filter="url(#filter0_d_211_1033)">
<path d="M5.86314 7.71854C4.10833 9.37803 2.71368 11.4474 1.87544 13.7653C-0.0134122 18.9908 0.928938 25.1148 4.33472 29.7456C7.53303 34.0948 12.7824 36.9512 18.3776 37.3849C23.6266 37.7931 29.0253 35.7775 33.1878 31.8553C33.199 31.8437 33.2112 31.8331 33.2225 31.8215C37.5723 27.7055 40.0288 22.1344 39.9647 16.528C39.8922 10.2242 36.6716 4.04533 31.5604 0.401369C30.5904 -0.290519 29.2501 -0.0613555 28.558 0.91667C27.8699 1.89283 28.0991 3.24415 29.0691 3.93604C33.0764 6.79326 35.6014 11.6374 35.6582 16.5795C35.7078 20.911 33.694 25.4276 30.2701 28.6675C30.2609 28.6762 30.2517 28.6849 30.2435 28.6936C26.9609 31.7862 22.7567 33.3806 18.7091 33.0661C14.3412 32.7268 10.2614 30.5226 7.79588 27.1681C5.27699 23.7432 4.54116 19.0625 5.92097 15.2455C7.32467 11.3604 11.0399 8.34985 14.9555 7.92334C18.0814 7.58333 21.4712 9.0185 23.5913 11.5786C24.638 12.8432 26.2434 15.4763 25.2285 18.8996C24.6238 20.9394 22.9412 22.637 21.0409 23.1232C19.1447 23.6096 16.9342 22.8319 15.8973 21.3142C14.8709 19.8098 15.0409 17.5274 16.27 16.3305C17.1242 15.499 17.1474 14.1275 16.3203 13.2675C15.4931 12.4084 14.1132 12.3801 13.2757 13.2181C10.5365 15.8845 10.1288 20.5192 12.3478 23.7684C14.4197 26.8016 18.4311 28.2628 22.1017 27.3222C25.4707 26.4571 28.3168 23.6384 29.3549 20.136C30.5146 16.2224 29.6191 12.0924 26.8997 8.8059C23.8372 5.10505 19.0826 3.11645 14.4927 3.61604C11.2863 3.96455 8.24375 5.46593 5.86314 7.71854Z" fill="#FDABFF"/>
</g>
<defs>
<filter id="filter0_d_211_1033" x="0.91626" y="0.00192261" width="41.0496" height="39.4349" filterUnits="userSpaceOnUse" color-interpolation-filters="sRGB">
<feFlood flood-opacity="0" result="BackgroundImageFix"/>
<feColorMatrix in="SourceAlpha" type="matrix" values="0 0 0 0 0 0 0 0 0 0 0 0 0 0 0 0 0 0 127 0" result="hardAlpha"/>
<feOffset dx="2" dy="2"/>
<feComposite in2="hardAlpha" operator="out"/>
<feColorMatrix type="matrix" values="0 0 0 0 0 0 0 0 0 0 0 0 0 0 0 0 0 0 1 0"/>
<feBlend mode="normal" in2="BackgroundImageFix" result="effect1_dropShadow_211_1033"/>
<feBlend mode="normal" in="SourceGraphic" in2="effect1_dropShadow_211_1033" result="shape"/>
</filter>
</defs>
</svg>
