<svg width="70" height="52" viewBox="0 0 70 52" fill="none" xmlns="http://www.w3.org/2000/svg">
<g filter="url(#filter0_d_211_1035)">
<path d="M10.3523 49.9804C14.5604 49.8619 18.7389 49.3874 22.8975 48.7824C35.3129 46.7601 47.7203 43.9881 59.3571 39.0903C61.7503 37.935 67.5889 35.5275 67.9853 32.6096C68.1578 31.3528 66.7743 30.4581 65.8801 30.2399C63.7098 29.6262 61.5997 29.6826 59.4181 29.7608C55.215 29.975 51.0697 30.6029 46.9628 31.4611C50.8834 31.2025 63.6032 29.9434 66.282 32.2852C66.4228 33.5342 62.3216 35.5563 59.917 36.6164C56.4738 36.696 53.0106 36.5615 49.6832 35.7165C47.5829 35.1419 44.9537 34.1293 44.2936 31.9481C43.7922 30.417 44.8359 28.8519 45.3581 27.3761C45.8935 25.8092 45.7169 23.9802 44.9669 22.5233C43.6458 19.7694 40.4891 17.368 40.5692 14.5322C40.4971 11.8672 40.1906 8.88627 38.5082 6.6248C36.8562 4.35187 34.5808 2.82124 32.1918 1.49518C29.7163 0.146505 26.6144 -0.518524 23.8503 0.481012C19.6904 1.95661 17.1017 6.31658 17.0533 10.6296C17.0358 13.3305 18.3373 15.9055 19.1521 18.3853C19.8761 20.5394 20.6922 23.0427 19.5214 25.0771C18.3471 27.0961 15.7446 27.9831 13.5992 28.7012C11.0664 29.6594 8.49212 30.99 7.05299 33.4706C5.46757 36.1169 6.56525 39.4839 8.78011 41.3504C9.73114 42.2675 11.0805 42.8343 12.1594 43.45C13.9125 44.5111 15.4855 46.0538 16.2167 47.9795C14.2458 48.2253 12.2694 48.4287 10.2891 48.5839C8.77149 48.6705 0.72916 49.1816 0.918276 47.0639C1.41052 45.732 2.86323 44.8644 4.02681 44.0467C4.88712 43.4647 5.79405 42.9465 6.69845 42.4176C4.70532 43.2316 0.932274 44.6511 0.0717298 46.8385C-0.364443 48.2703 1.28569 49.1301 2.39833 49.3907C4.99861 50.0678 7.71979 50.0196 10.3523 49.9804ZM36.9696 8.17275C37.5427 8.99425 37.9798 9.91646 38.2159 10.9761C38.511 12.186 38.6138 13.5386 38.6996 14.8738C38.832 17.6146 41.0191 19.7465 42.4888 21.7585C43.6626 23.323 44.2876 25.0204 43.6824 26.8493C43.5699 27.2531 43.3436 27.6856 43.1793 28.0724C40.8197 33.125 44.7474 36.178 49.3129 37.1893C51.6988 37.7535 54.14 37.958 56.5797 37.9712C53.6957 39.0822 50.7695 40.0832 47.8148 40.9996C44.705 40.3697 40.9721 39.1287 39.3393 36.3167C38.7052 35.2128 38.7894 33.8738 38.9188 32.6346C39.3189 28.7743 41.7276 25.3571 39.3065 21.5889C38.6169 20.4105 37.5653 19.3875 36.842 18.2305C35.4422 16.084 34.4657 13.3372 34.8503 10.8173C35.038 9.55188 35.7537 8.28168 36.9696 8.17275ZM35.7331 6.73488C34.3673 7.45569 33.541 9.02749 33.4326 10.6309C33.1523 13.8318 34.4832 16.9101 36.3234 19.4363C37.2548 20.6604 38.4136 21.8258 38.9609 23.2899C39.2716 24.0818 39.3507 24.9252 39.2796 25.7749C38.9003 29.1643 36.5675 32.8076 38.1539 36.9198C39.472 39.4066 41.9621 40.9244 44.5836 41.9655C43.3467 42.3232 42.1068 42.6711 40.8637 43.0053C40.3112 43.1512 39.7578 43.2948 39.2042 43.4374C36.122 42.1897 32.1099 39.9974 31.6379 36.5191C31.5151 35.455 31.9191 34.3207 32.4806 33.3764L32.8425 32.7057C34.045 30.4184 35.1684 28.0956 35.4479 25.4123C35.7041 23.2843 35.0197 21.0737 33.8536 19.3131C32.1276 16.2245 29.8382 12.3014 31.1761 8.7668C31.7341 7.41151 32.9191 6.35798 34.2903 5.52895C34.8023 5.90382 35.2872 6.30391 35.7331 6.73488ZM30.8459 3.43824C30.9325 3.48153 31.0192 3.52431 31.1045 3.57005C31.5606 3.81636 32.0146 4.07158 32.4617 4.33529C29.1103 6.75693 28.0463 10.368 29.8436 14.562C30.6438 16.5101 31.7208 18.2438 32.7557 19.9721C33.8127 21.5594 34.3562 23.3743 34.1227 25.2795C33.8027 28.1244 32.265 30.8518 30.8349 33.3449C28.3944 37.9851 32.2838 41.8686 36.2741 44.1721C34.3138 44.6522 32.3466 45.1078 30.3733 45.5335C29.4981 45.1493 28.613 44.6313 27.8206 44.0518C24.2448 41.5563 22.5934 37.2073 24.5288 33.1488C25.5173 31.2251 27.2854 29.9119 28.7684 28.2928C31.7572 25.2337 31.5038 21.6724 29.4848 18.1501C28.3795 16.2691 27.0488 14.5196 26.296 12.4645C25.1102 9.67684 25.1234 6.0157 28.0233 4.35996C28.8643 3.84887 29.8451 3.55453 30.8459 3.43824ZM25.3871 3.70759C26.0571 3.26968 26.8239 2.97804 27.6268 2.78195C23.1625 5.71419 23.5817 11.0844 26.2618 16.1406C26.7477 17.0906 27.4145 18.0975 27.9156 19.0207C31.8966 26.1681 26.1374 27.1859 23.3403 32.5626C20.9582 38.1134 23.6633 43.2012 28.4391 45.9402C26.8342 46.2694 25.2252 46.578 23.6122 46.8622C23.5081 46.525 23.3855 46.1967 23.2511 45.8594C22.429 43.8281 21.1074 42.0501 19.5806 40.5179C19.0025 39.9491 18.2713 39.3383 17.802 38.697C14.8267 35.0566 18.3478 31.6682 21.6981 30.1092C26.6937 28.1147 26.6361 23.2404 25.1776 18.812C24.5337 16.5571 23.2718 14.5317 22.7323 12.2738C22.0187 9.21982 22.5523 5.46142 25.3871 3.70759ZM12.9187 42.1781C11.7878 41.5035 10.7111 41.1033 9.79023 40.2215C8.08541 38.737 7.20704 36.2752 8.42848 34.2511C9.99318 31.6356 13.2118 30.5593 15.9892 29.636C18.5839 28.7226 21.3745 26.8988 21.8449 23.8913C22.3748 20.47 20.7562 17.2481 19.8636 14.1007C19.5211 12.9474 19.2092 11.8704 19.2639 10.6687C19.3505 8.09352 20.6578 5.34847 22.7163 3.77169C20.9179 6.08235 20.4377 9.32002 21.2774 12.6215C21.8666 14.9414 23.2161 16.9619 23.8907 19.2331C24.8855 22.1662 25.5563 26.1959 22.6067 28.174C21.693 28.7619 20.4907 29.2154 19.5359 29.8381C17.5833 31.0594 15.5876 32.9512 15.3396 35.3972C15.0484 37.9536 16.7848 39.9857 18.4654 41.6081C19.9165 43.196 21.1712 45.0894 21.6889 47.1881C20.3698 47.4037 19.0487 47.6013 17.7249 47.781C17.5826 47.3531 17.4048 46.9439 17.1905 46.5348C16.2276 44.7035 14.6636 43.2219 12.9187 42.1781Z" fill="#625AD8"/>
</g>
<defs>
<filter id="filter0_d_211_1035" x="0" y="0" width="70" height="52" filterUnits="userSpaceOnUse" color-interpolation-filters="sRGB">
<feFlood flood-opacity="0" result="BackgroundImageFix"/>
<feColorMatrix in="SourceAlpha" type="matrix" values="0 0 0 0 0 0 0 0 0 0 0 0 0 0 0 0 0 0 127 0" result="hardAlpha"/>
<feOffset dx="2" dy="2"/>
<feComposite in2="hardAlpha" operator="out"/>
<feColorMatrix type="matrix" values="0 0 0 0 0 0 0 0 0 0 0 0 0 0 0 0 0 0 1 0"/>
<feBlend mode="normal" in2="BackgroundImageFix" result="effect1_dropShadow_211_1035"/>
<feBlend mode="normal" in="SourceGraphic" in2="effect1_dropShadow_211_1035" result="shape"/>
</filter>
</defs>
</svg>
