<svg width="64" height="61" viewBox="0 0 64 61" fill="none" xmlns="http://www.w3.org/2000/svg">
<g filter="url(#filter0_d_211_1031)">
<path d="M6.01937 13.1237C3.1374 15.8491 0.846916 19.2478 -0.529765 23.0544C-3.63189 31.6365 -2.08423 41.6941 3.5092 49.2995C8.7619 56.4424 17.3831 61.1336 26.5723 61.8459C35.193 62.5162 44.0593 59.206 50.8955 52.7643C50.914 52.7453 50.9341 52.7279 50.9526 52.7088C58.0965 45.949 62.1309 36.7994 62.0255 27.5917C61.9065 17.2388 56.6172 7.09105 48.2229 1.10645C46.6298 -0.0298669 44.4286 0.346496 43.2919 1.95274C42.1618 3.55592 42.5383 5.77525 44.1314 6.91156C50.7127 11.6041 54.8596 19.5598 54.9528 27.6764C55.0344 34.7902 51.7269 42.208 46.1037 47.5289C46.0886 47.5431 46.0735 47.5574 46.0601 47.5718C40.6689 52.6508 33.7642 55.2694 27.1168 54.7528C19.9432 54.1957 13.2428 50.5755 9.19358 45.0664C5.05672 39.4415 3.84825 31.7543 6.11436 25.4854C8.41971 19.1048 14.5214 14.1605 20.9521 13.4601C26.0859 12.9016 31.653 15.2587 35.135 19.4631C36.8539 21.5401 39.4906 25.8645 37.8238 31.4867C36.8307 34.8367 34.0673 37.6248 30.9464 38.4234C27.8321 39.2222 24.2018 37.9449 22.4988 35.4523C20.8131 32.9817 21.0923 29.2331 23.111 27.2674C24.5138 25.9018 24.5519 23.6494 23.1935 22.2369C21.8351 20.8261 19.5687 20.7796 18.1933 22.1558C13.6945 26.535 13.025 34.1466 16.6693 39.4829C20.0721 44.4645 26.6601 46.8643 32.6886 45.3195C38.2216 43.8987 42.8957 39.2694 44.6007 33.5173C46.5053 27.0899 45.0347 20.307 40.5685 14.9095C35.5388 8.83146 27.7302 5.56552 20.1921 6.38601C14.926 6.95839 9.92913 9.42414 6.01937 13.1237Z" fill="#D48589"/>
</g>
<defs>
<filter id="filter0_d_211_1031" x="-2.10522" y="0.450439" width="65.1328" height="62.4806" filterUnits="userSpaceOnUse" color-interpolation-filters="sRGB">
<feFlood flood-opacity="0" result="BackgroundImageFix"/>
<feColorMatrix in="SourceAlpha" type="matrix" values="0 0 0 0 0 0 0 0 0 0 0 0 0 0 0 0 0 0 127 0" result="hardAlpha"/>
<feOffset dx="1" dy="1"/>
<feComposite in2="hardAlpha" operator="out"/>
<feColorMatrix type="matrix" values="0 0 0 0 0 0 0 0 0 0 0 0 0 0 0 0 0 0 1 0"/>
<feBlend mode="normal" in2="BackgroundImageFix" result="effect1_dropShadow_211_1031"/>
<feBlend mode="normal" in="SourceGraphic" in2="effect1_dropShadow_211_1031" result="shape"/>
</filter>
</defs>
</svg>
