<svg width="217" height="17" viewBox="0 0 217 17" fill="none" xmlns="http://www.w3.org/2000/svg">
<path d="M32.0567 11.8483C32.1152 13.5337 31.2897 15.0006 30.254 15.0343L215.882 7.40742C215.892 7.40753 215.9 7.41148 215.91 7.41117C216.383 7.39583 216.746 6.75789 216.719 5.98694C216.692 5.216 216.286 4.60302 215.812 4.61836L29.9974 8.82609C31.0326 8.792 31.9982 10.1628 32.0567 11.8483Z" fill="#FFEB88"/>
<path d="M30.8728 11.7001C30.8143 10.0146 29.8486 8.64378 28.8134 8.67745L1.5228 9.29523C2.66124 9.25888 3.6359 10.7315 3.70012 12.5843C3.76484 14.4379 2.89377 15.9706 1.75535 16.0078L29.0705 14.8857C30.1058 14.8524 30.9313 13.386 30.8728 11.7001Z" fill="#7339AB"/>
<path d="M37.4572 11.7149C37.5089 13.1994 36.8743 14.5169 36.016 14.8371L37.9593 14.7571C38.9766 14.724 39.7873 13.2797 39.7294 11.6236C39.6719 9.96745 38.7231 8.6203 37.7057 8.65336L35.614 8.70059C36.5641 8.85184 37.4027 10.1466 37.4572 11.7149Z" fill="#7339AB"/>
<path d="M0.201633 12.6974C0.266347 14.5511 1.24145 16.0237 2.38035 15.9869C3.51877 15.9497 4.38984 14.417 4.32512 12.5633C4.26043 10.7101 3.28579 9.23796 2.1478 9.2743L2.14687 9.27433C1.00797 9.31069 0.136904 10.8434 0.201633 12.6974Z" fill="#FFEB88"/>
</svg>
