<svg width="20" height="18" viewBox="0 0 20 18" fill="none" xmlns="http://www.w3.org/2000/svg">
<path d="M11.0631 16.8838C12.3841 17.2604 13.8002 17.3415 15.1753 17.0782C18.2752 16.484 20.9883 14.2429 22.255 11.2302C23.4448 8.40075 23.3085 5.00134 21.8894 2.13677C20.5588 -0.550949 18.0021 -2.6075 14.8754 -3.50487C14.8665 -3.50701 14.8578 -3.5099 14.8488 -3.51204C11.573 -4.4448 8.13911 -4.02799 5.42255 -2.3672C2.36822 -0.499651 0.292295 2.87238 0.00409574 6.43307C-0.0507543 7.10893 0.451646 7.69831 1.13051 7.75282C1.80729 7.8059 2.39977 7.30098 2.45462 6.62511C2.68072 3.83338 4.3082 1.18969 6.70278 -0.274389C8.80155 -1.55757 11.592 -1.88457 14.1705 -1.15036C14.1774 -1.14839 14.1843 -1.14642 14.191 -1.14494C16.6564 -0.437088 18.6596 1.15724 19.6857 3.22968C20.7932 5.46613 20.9068 8.10357 19.9888 10.2852C19.052 12.5135 16.9828 14.2339 14.7185 14.6679C12.4139 15.11 9.86239 14.1666 8.51316 12.3741C7.43627 10.9429 7.14857 8.86678 7.77967 7.08506C8.09163 6.20523 8.90835 4.65423 10.8743 4.15602C12.0457 3.85917 13.3643 4.18934 14.1553 4.97808C14.9453 5.76484 15.21 7.07276 14.7718 8.02136C14.337 8.96095 13.1739 9.54108 12.2317 9.28734C11.5771 9.11093 10.9012 9.49818 10.7227 10.153C10.5447 10.8075 10.933 11.4911 11.5859 11.6575C13.6851 12.2232 16.065 11.0758 17.0036 9.0454C17.8796 7.14974 17.4234 4.76174 15.8947 3.23854C14.4908 1.84103 12.2862 1.26728 10.2749 1.77709C8.0276 2.34686 6.2736 3.98545 5.46275 6.27158C4.54974 8.84611 4.9652 11.7511 6.54661 13.8524C7.65112 15.3205 9.27031 16.3733 11.0631 16.8838Z" fill="#625AD8"/>
</svg>
