<svg width="21" height="15" viewBox="0 0 21 15" fill="none" xmlns="http://www.w3.org/2000/svg">
<path d="M3.64548 0.428709C2.28816 0.853272 1.01641 1.5875 -0.0241575 2.59666C-2.36958 4.87203 -3.44467 8.35306 -2.82942 11.6803C-2.25178 14.8051 -0.202562 17.67 2.65305 19.3431C5.33166 20.9135 8.71289 21.2409 11.9289 20.2413C11.9378 20.2381 11.9471 20.2356 11.956 20.2324C15.3212 19.1787 18.0565 16.8671 19.4642 13.8864C21.0468 10.5347 20.9279 6.43683 19.1545 3.19126C18.818 2.57512 18.0483 2.35043 17.4298 2.68892C16.8138 3.02746 16.5879 3.80108 16.9244 4.41721C18.3147 6.96196 18.408 10.1747 17.1672 12.8023C16.0797 15.1053 13.8503 16.9736 11.2014 17.803C11.1943 17.8052 11.1872 17.8074 11.1806 17.8099C8.64455 18.5979 6.00504 18.356 3.93949 17.1452C1.71041 15.8387 0.113718 13.6205 -0.331141 11.2107C-0.786178 8.7499 0.0272694 6.08529 1.74056 4.42323C3.48402 2.73134 6.2284 2.09837 8.41453 2.8833C10.1596 3.51018 11.5882 5.1437 12.0541 7.04435C12.284 7.98308 12.4582 9.78949 11.0397 11.3376C10.1945 12.26 8.86566 12.7233 7.73291 12.4901C6.60222 12.2579 5.63003 11.2763 5.47042 10.2063C5.31295 9.14601 5.99007 7.98312 6.94969 7.66748C7.61646 7.44829 7.98144 6.72915 7.76398 6.061C7.54626 5.39337 6.82176 5.02229 6.16214 5.24921C4.02383 5.95213 2.61582 8.29734 2.957 10.5878C3.27574 12.7262 5.02721 14.5339 7.21566 14.9839C9.2247 15.3958 11.4588 14.64 12.91 13.0561C14.5314 11.2862 15.1186 8.8715 14.5216 6.43216C13.8492 3.68516 11.8393 1.40684 9.27675 0.486542C7.48674 -0.156628 5.48719 -0.14796 3.64548 0.428709Z" fill="#625AD8"/>
</svg>
