<svg width="28" height="28" viewBox="0 0 28 28" fill="none" xmlns="http://www.w3.org/2000/svg">
<path d="M2.33325 24.5C2.33315 22.7037 2.85141 20.9456 3.82582 19.4365C4.80023 17.9275 6.18941 16.7317 7.82662 15.9927C9.46383 15.2536 11.2795 15.0028 13.0558 15.2701C14.8321 15.5375 16.4935 16.3118 17.8406 17.5M22.1666 18.6667V25.6667M25.6666 22.1667H18.6666M17.4999 9.33333C17.4999 12.555 14.8882 15.1667 11.6666 15.1667C8.44492 15.1667 5.83325 12.555 5.83325 9.33333C5.83325 6.11167 8.44492 3.5 11.6666 3.5C14.8882 3.5 17.4999 6.11167 17.4999 9.33333Z" stroke="#09122C" stroke-width="2" stroke-linecap="round" stroke-linejoin="round"/>
</svg>
