<svg width="178" height="48" viewBox="0 0 178 48" fill="none" xmlns="http://www.w3.org/2000/svg">
<path d="M63.3175 30.5868C62.5912 30.5868 61.9583 30.4092 61.4188 30.0539C60.9001 29.6777 60.4435 29.197 60.0493 28.6119C59.6758 28.0268 59.3438 27.3894 59.0532 26.6998C58.7835 25.9893 58.5241 25.31 58.2751 24.6622C57.9016 23.6173 57.5592 22.7082 57.248 21.935C56.9367 21.1409 56.5943 20.4722 56.2208 19.9288C55.8266 21.517 55.5049 23.0426 55.2559 24.5055C55.0276 25.9683 54.8824 27.5983 54.8202 29.3956C54.4466 29.7509 54.0213 30.0225 53.544 30.2106C53.0875 30.3987 52.6206 30.4927 52.1433 30.4927C51.417 30.4927 50.7738 30.242 50.2136 29.7404C49.6533 29.218 49.3732 28.3507 49.3732 27.1386C49.3732 26.3027 49.4977 25.3623 49.7467 24.3174C49.9957 23.2725 50.2965 22.1963 50.6493 21.0887C51.0228 19.981 51.3963 18.9049 51.7698 17.8599C52.1433 16.815 52.4546 15.8746 52.7036 15.0387C52.9526 14.1818 53.0771 13.5027 53.0771 13.0011C53.0771 12.4787 52.9008 12.2175 52.548 12.2175C52.1538 12.2175 51.6765 12.5205 51.1162 13.1265C50.5559 13.7116 49.9853 14.5371 49.4043 15.6029L49.2175 15.5402C49.2175 14.2864 49.4873 13.1684 50.0268 12.1861C50.5663 11.2039 51.2925 10.3785 52.2056 9.70972C53.1394 9.02008 54.208 8.49764 55.4115 8.14237C56.6358 7.7871 57.912 7.60947 59.24 7.60947C61.0038 7.60947 62.4355 7.89159 63.5353 8.45584C64.6351 8.99919 65.4444 9.70972 65.9631 10.5874C66.5027 11.4443 66.7724 12.3637 66.7724 13.346C66.7724 14.3491 66.513 15.3313 65.9943 16.2926C65.4963 17.2538 64.7804 18.0585 63.8466 18.7063C62.9335 19.3332 61.8441 19.6989 60.5784 19.8034C61.0142 20.1378 61.3877 20.5662 61.6989 21.0887C62.0102 21.5902 62.3319 22.1649 62.6638 22.8127C62.9544 23.3978 63.2967 23.9621 63.691 24.5055C64.0852 25.0279 64.6247 25.2891 65.3095 25.2891C65.6623 25.2891 65.9527 25.2056 66.181 25.0384C66.4093 24.8503 66.6064 24.5473 66.7724 24.1293L66.9592 24.2234C67.063 24.5368 67.1252 24.8398 67.1459 25.1324C67.1875 25.425 67.2082 25.6967 67.2082 25.9474C67.2082 27.264 66.8451 28.3716 66.1188 29.2702C65.3925 30.1479 64.4587 30.5868 63.3175 30.5868ZM57.7771 17.0449C58.5241 17.0449 59.1673 16.8777 59.7069 16.5434C60.2671 16.1881 60.6925 15.7597 60.983 15.2581C61.2943 14.7357 61.4499 14.2132 61.4499 13.6908C61.4499 13.043 61.2009 12.4787 60.7029 11.998C60.2256 11.4965 59.4372 11.2457 58.3374 11.2457C58.1713 11.2457 57.995 11.2562 57.8082 11.2771C57.6422 11.2771 57.4762 11.2875 57.3102 11.3084C57.3309 11.4547 57.3413 11.601 57.3413 11.7473C57.3413 11.8727 57.3413 11.9353 57.3413 11.9353C57.3413 12.8966 57.2998 13.8266 57.2168 14.7252C57.1546 15.6238 57.0612 16.3761 56.9367 16.9822C57.0819 17.0031 57.2168 17.024 57.3413 17.0449C57.4866 17.0449 57.6319 17.0449 57.7771 17.0449ZM79.0452 30.5241C78.3189 30.5241 77.6861 30.2838 77.1465 29.8031C76.607 29.3224 76.3372 28.5387 76.3372 27.4521C76.3372 27.3476 76.3372 27.2431 76.3372 27.1386C76.3372 27.0341 76.3476 26.9297 76.3684 26.8251C75.7458 28.079 75.0404 29.009 74.2518 29.615C73.4841 30.2001 72.7059 30.4927 71.9174 30.4927C71.1911 30.4927 70.5063 30.242 69.8631 29.7404C69.2199 29.218 68.701 28.4552 68.3068 27.4521C67.9126 26.449 67.7154 25.2369 67.7154 23.8158C67.7154 22.353 67.9126 21.0468 68.3068 19.8975C68.7219 18.7481 69.2613 17.7764 69.9254 16.9822C70.5894 16.1881 71.3156 15.5925 72.1041 15.1954C72.8927 14.7774 73.6604 14.5685 74.4074 14.5685C75.2374 14.5685 75.9844 14.8297 76.6485 15.3522C77.3125 15.8537 77.769 16.6583 78.018 17.7659C78.0803 17.4106 78.1218 17.0867 78.1425 16.7941C78.1841 16.5015 78.2048 16.3031 78.2048 16.1985C78.2255 15.6343 78.5056 15.2163 79.0452 14.9447C79.6054 14.673 80.2175 14.5371 80.8816 14.5371C81.4626 14.5371 82.0125 14.6521 82.5313 14.882C83.05 15.1119 83.4028 15.4984 83.5895 16.0418L83.6518 16.2299C83.4028 16.7941 83.1538 17.4733 82.9048 18.2674C82.6558 19.0616 82.4275 19.8975 82.22 20.7752C82.0125 21.632 81.8465 22.4784 81.722 23.3143C81.5975 24.1293 81.5352 24.8503 81.5352 25.4772C81.5352 26.1669 81.6079 26.6475 81.7531 26.9192C81.8983 27.17 82.0748 27.2954 82.2822 27.2954C82.635 27.2954 82.9566 27.0446 83.2471 26.543L83.4961 26.6684C83.4961 27.3789 83.2679 28.0268 82.8114 28.6119C82.3549 29.197 81.7842 29.6672 81.0995 30.0225C80.4147 30.3569 79.7299 30.5241 79.0452 30.5241ZM73.9717 26.543C74.5112 26.543 75.1026 26.0623 75.7458 25.1011C76.4099 24.1188 76.9805 22.7187 77.4578 20.9006C77.4993 20.7125 77.5407 20.5349 77.5823 20.3677C77.6238 20.1796 77.6549 20.002 77.6756 19.8348C77.3437 19.0616 76.9909 18.5182 76.6174 18.2047C76.2646 17.8704 75.9119 17.7032 75.5591 17.7032C75.0404 17.7032 74.5527 17.9853 74.0962 18.5496C73.6604 19.0929 73.2973 19.7826 73.0068 20.6185C72.7371 21.4543 72.6022 22.2903 72.6022 23.1262C72.6022 24.2756 72.7267 25.1324 72.9757 25.6967C73.2454 26.2609 73.5775 26.543 73.9717 26.543ZM87.5225 30.4927C86.7755 30.4927 86.1012 30.1898 85.4994 29.5837C84.9184 28.9567 84.6279 28.0999 84.6279 27.0132C84.6279 26.4698 84.7005 25.8534 84.8457 25.1638C84.991 24.4533 85.1466 23.7323 85.3126 23.0008C85.4994 22.2694 85.6654 21.5797 85.8106 20.9319C85.9559 20.2841 86.0285 19.7407 86.0285 19.3019C86.0285 18.9466 85.9455 18.6645 85.7795 18.4555C85.6135 18.2256 85.3956 18.1107 85.1259 18.1107C84.7731 18.1107 84.3893 18.3196 83.9742 18.7376L83.7875 18.6122C83.7667 18.2779 83.8393 17.8808 84.0053 17.4211C84.1714 16.9613 84.4411 16.5225 84.8146 16.1045C85.1881 15.6656 85.6757 15.3 86.2775 15.0073C86.8793 14.7147 87.5952 14.5685 88.4252 14.5685C89.359 14.5685 90.0541 14.9028 90.5106 15.5716C90.9879 16.2194 91.2265 17.0031 91.2265 17.9226C91.2265 18.0271 91.2265 18.142 91.2265 18.2674C91.2265 18.372 91.2161 18.4764 91.1954 18.5809C91.5896 17.9331 92.0462 17.3062 92.5649 16.7001C93.1045 16.094 93.7062 15.5925 94.3702 15.1954C95.055 14.7774 95.7916 14.5685 96.5801 14.5685C97.5966 14.5685 98.3027 14.9028 98.6967 15.5716C99.0906 16.2194 99.2881 16.9613 99.2881 17.7972C99.2881 17.9644 99.2774 18.1316 99.2569 18.2988C99.2569 18.445 99.2462 18.5914 99.2258 18.7376C99.6616 18.0898 100.139 17.4524 100.658 16.8255C101.197 16.1777 101.809 15.6448 102.494 15.2268C103.179 14.7879 103.968 14.5685 104.86 14.5685C105.96 14.5685 106.707 14.8924 107.101 15.5402C107.516 16.1881 107.723 16.9509 107.723 17.8286C107.723 18.6018 107.63 19.49 107.443 20.4931C107.256 21.4753 107.069 22.4471 106.883 23.4083C106.696 24.3696 106.603 25.1846 106.603 25.8534C106.603 26.2504 106.654 26.5744 106.758 26.8251C106.883 27.0759 107.08 27.2013 107.35 27.2013C107.578 27.2013 107.785 27.1386 107.972 27.0132C108.179 26.867 108.325 26.6998 108.408 26.5117L108.657 26.6057C108.657 27.3789 108.439 28.0582 108.003 28.6433C107.567 29.2284 107.018 29.6882 106.354 30.0225C105.689 30.336 105.026 30.4927 104.362 30.4927C103.552 30.4927 102.836 30.2211 102.214 29.6777C101.612 29.1343 101.311 28.2358 101.311 26.9819C101.311 26.2087 101.405 25.3727 101.591 24.4741C101.799 23.5755 101.996 22.7082 102.183 21.8723C102.39 21.0155 102.494 20.3155 102.494 19.7721C102.494 18.9989 102.225 18.6122 101.685 18.6122C101.291 18.6122 100.896 18.7795 100.502 19.1138C100.128 19.4273 99.7861 19.8556 99.4748 20.399C99.184 20.9214 98.9457 21.4753 98.7589 22.0604C98.5722 22.6455 98.4788 23.2098 98.4788 23.7531C98.4788 24.2547 98.5303 24.8085 98.6344 25.4145C98.7589 25.9996 98.8212 26.5639 98.8212 27.1073C98.8212 28.1939 98.5206 29.0299 97.9185 29.615C97.3164 30.2001 96.6112 30.4927 95.802 30.4927C95.055 30.4927 94.3806 30.242 93.7788 29.7404C93.1978 29.2389 92.9073 28.4865 92.9073 27.4834C92.9073 27.0237 92.9695 26.4698 93.094 25.822C93.2185 25.1533 93.3535 24.4636 93.4987 23.7531C93.6647 23.0217 93.8099 22.3217 93.9344 21.6529C94.0589 20.9841 94.1212 20.399 94.1212 19.8975C94.1212 19.5004 94.0589 19.187 93.9344 18.9571C93.8306 18.7272 93.6128 18.6122 93.2808 18.6122C92.8035 18.6122 92.347 18.8525 91.9113 19.3332C91.4755 19.8139 91.102 20.399 90.7907 21.0887C90.4795 21.7574 90.272 22.4052 90.1682 23.0322C90.1475 23.1784 90.1267 23.2934 90.106 23.377C90.106 23.4605 90.106 23.5024 90.106 23.5024C90.106 24.1502 90.1786 24.7458 90.3239 25.2891C90.4691 25.8116 90.5417 26.3549 90.5417 26.9192C90.5417 27.9432 90.2305 28.8 89.608 29.4896C89.0062 30.1584 88.3111 30.4927 87.5225 30.4927ZM115.536 30.5868C114.021 30.5868 112.765 30.2838 111.769 29.6777C110.773 29.0508 110.026 28.2358 109.528 27.2327C109.03 26.2087 108.781 25.1115 108.781 23.9412C108.781 22.8336 108.99 21.7261 109.404 20.6185C109.84 19.49 110.462 18.466 111.271 17.5465C112.102 16.6269 113.098 15.8851 114.26 15.3208C115.442 14.7566 116.771 14.4745 118.244 14.4745C120.07 14.4745 121.398 14.8924 122.228 15.7283C123.079 16.5433 123.504 17.536 123.504 18.7063C123.504 19.7094 123.234 20.6393 122.695 21.4962C122.176 22.3321 121.481 23.0113 120.609 23.5337C119.738 24.0353 118.783 24.286 117.746 24.286C117.207 24.286 116.656 24.2025 116.096 24.0353C115.536 23.8681 114.986 23.6069 114.446 23.2516C114.55 24.5473 114.924 25.4877 115.567 26.0728C116.211 26.6579 116.978 26.9505 117.87 26.9505C118.493 26.9505 119.115 26.8356 119.738 26.6057C120.36 26.3549 120.931 26.0415 121.45 25.6653C121.989 25.2683 122.405 24.8503 122.695 24.4114L122.912 24.5682C122.912 25.6548 122.685 26.5849 122.228 27.358C121.792 28.1104 121.211 28.7268 120.485 29.2075C119.759 29.6882 118.959 30.0434 118.088 30.2733C117.238 30.4823 116.387 30.5868 115.536 30.5868ZM116.252 22.1231C116.916 22.1231 117.456 21.935 117.87 21.5589C118.285 21.1618 118.597 20.702 118.804 20.1796C119.012 19.6572 119.115 19.1974 119.115 18.8003C119.115 18.3196 118.981 17.9226 118.71 17.6091C118.441 17.2748 118.068 17.1076 117.59 17.1076C117.216 17.1076 116.802 17.2435 116.345 17.5151C115.909 17.7867 115.515 18.2569 115.162 18.9257C114.81 19.5735 114.581 20.4826 114.477 21.6529C115.142 21.9664 115.733 22.1231 116.252 22.1231ZM127.533 30.4614C126.765 30.4614 126.07 30.1584 125.447 29.5523C124.825 28.9254 124.513 28.0582 124.513 26.9505C124.513 26.4072 124.586 25.7907 124.731 25.1011C124.877 24.4114 125.033 23.7113 125.198 23.0008C125.385 22.2903 125.551 21.6216 125.696 20.9946C125.842 20.3677 125.914 19.8556 125.914 19.4586C125.914 19.0406 125.831 18.7168 125.665 18.4869C125.5 18.2361 125.282 18.1107 125.011 18.1107C124.659 18.1107 124.275 18.3196 123.86 18.7376L123.673 18.6122C123.653 18.2779 123.726 17.8808 123.891 17.4211C124.057 16.9613 124.306 16.5225 124.638 16.1045C124.991 15.6656 125.438 15.3 125.976 15.0073C126.516 14.7147 127.159 14.5685 127.906 14.5685C129.006 14.5685 129.816 14.8924 130.334 15.5402C130.874 16.1672 131.143 16.9404 131.143 17.8599C131.143 18.1943 131.112 18.5182 131.05 18.8317C131.486 18.1839 132.025 17.536 132.668 16.8882C133.312 16.2194 134.018 15.6656 134.785 15.2268C135.574 14.7879 136.383 14.5685 137.213 14.5685C138.188 14.5685 138.853 14.882 139.205 15.5089C139.558 16.1358 139.734 16.9195 139.734 17.8599C139.734 18.7376 139.641 19.678 139.454 20.6811C139.267 21.6842 139.08 22.656 138.894 23.5964C138.707 24.516 138.613 25.2891 138.613 25.9161C138.613 26.752 138.853 27.17 139.329 27.17C139.578 27.17 139.796 27.0968 139.983 26.9505C140.17 26.7833 140.294 26.6266 140.356 26.4803L140.574 26.5744C140.574 27.3476 140.356 28.0268 139.921 28.6119C139.506 29.197 138.977 29.6569 138.333 29.9912C137.69 30.3047 137.037 30.4614 136.372 30.4614C135.563 30.4614 134.847 30.1793 134.225 29.615C133.602 29.0508 133.291 28.1312 133.291 26.8565C133.291 26.1042 133.384 25.2891 133.571 24.4114C133.779 23.5337 133.976 22.6873 134.162 21.8723C134.349 21.0573 134.443 20.3885 134.443 19.8661C134.443 19.5527 134.38 19.3124 134.256 19.1451C134.153 18.9571 133.955 18.863 133.664 18.863C133.188 18.863 132.659 19.0825 132.077 19.5213C131.517 19.9602 131.029 20.5453 130.614 21.2767C130.22 22.0082 130.023 22.8127 130.023 23.6905C130.023 24.2547 130.085 24.7981 130.209 25.3205C130.355 25.8429 130.427 26.4072 130.427 27.0132C130.427 28.1417 130.137 28.9986 129.556 29.5837C128.975 30.1688 128.301 30.4614 127.533 30.4614Z" fill="#09122C"/>
<path d="M154.708 30.5868C153.879 30.5868 153.194 30.3987 152.654 30.0225C152.115 29.6464 151.679 29.1448 151.347 28.5179C151.015 27.8701 150.746 27.1595 150.537 26.3863C150.351 25.5921 150.175 24.7981 150.008 24.0039C149.801 22.8963 149.541 21.8618 149.23 20.9006C148.94 19.9393 148.463 19.2705 147.798 18.8944C147.384 20.4199 146.989 21.9559 146.616 23.5024C146.242 25.0279 146.055 26.543 146.055 28.0477C146.055 28.2776 146.055 28.5179 146.055 28.7687C146.077 28.9986 146.097 29.2284 146.118 29.4583C145.392 30.1479 144.552 30.4927 143.596 30.4927C142.808 30.4927 142.093 30.1898 141.449 29.5837C140.826 28.9776 140.515 27.9955 140.515 26.6371C140.515 25.6131 140.681 24.5682 141.013 23.5024C141.346 22.4366 141.729 21.3603 142.165 20.2736C142.622 19.187 143.016 18.1107 143.347 17.0449C143.68 15.9582 143.845 14.8924 143.845 13.8475C143.845 13.1579 143.763 12.6772 143.596 12.4056C143.431 12.1129 143.213 11.9667 142.943 11.9667C142.653 11.9667 142.331 12.1129 141.978 12.4056C141.646 12.6982 141.324 13.1474 141.013 13.7535L140.795 13.6908C140.837 12.625 141.075 11.6427 141.511 10.7442C141.947 9.84559 142.528 9.13502 143.254 8.61257C144.001 8.06922 144.81 7.79755 145.682 7.79755C146.553 7.79755 147.322 8.13192 147.985 8.80065C148.649 9.44849 148.981 10.5769 148.981 12.1861C148.981 12.8966 148.909 13.6594 148.763 14.4745C148.639 15.2686 148.483 16.0836 148.296 16.9195C149.23 16.1045 150.039 15.2059 150.724 14.2237C151.43 13.2206 151.969 12.2488 152.343 11.3084C152.738 10.3471 152.934 9.51118 152.934 8.80065C152.934 8.3409 152.841 7.95429 152.654 7.64082C153.671 7.64082 154.574 7.7871 155.362 8.07967C156.171 8.37225 156.815 8.77976 157.292 9.30221C157.769 9.80376 158.008 10.3889 158.008 11.0576C158.008 11.9562 157.5 12.9384 156.482 14.0042C155.486 15.07 153.796 16.1254 151.409 17.1703C152.011 17.4419 152.498 17.8494 152.872 18.3928C153.267 18.9152 153.588 19.49 153.837 20.1169C154.107 20.723 154.335 21.3186 154.521 21.9037C154.875 22.9276 155.217 23.795 155.549 24.5055C155.902 25.1951 156.4 25.5399 157.044 25.5399C157.458 25.5399 157.821 25.404 158.132 25.1324C158.465 24.8608 158.703 24.5577 158.848 24.2234L159.035 24.3174C159.035 25.4459 158.869 26.4908 158.537 27.4521C158.205 28.3925 157.718 29.1553 157.074 29.7404C156.431 30.3047 155.642 30.5868 154.708 30.5868ZM164.519 13.5967C163.688 13.5967 163.003 13.346 162.464 12.8444C161.945 12.322 161.686 11.6741 161.686 10.9009C161.686 10.065 161.997 9.344 162.62 8.73796C163.242 8.13192 163.999 7.8289 164.892 7.8289C165.722 7.8289 166.396 8.09013 166.915 8.61257C167.454 9.13502 167.725 9.78286 167.725 10.5561C167.725 11.392 167.413 12.1129 166.791 12.719C166.168 13.3041 165.411 13.5967 164.519 13.5967ZM162.34 30.4927C161.531 30.4927 160.804 30.2106 160.161 29.6464C159.517 29.0613 159.196 28.1312 159.196 26.8565C159.196 26.125 159.29 25.4459 159.476 24.8189C159.683 24.1711 159.912 23.5442 160.161 22.9381C160.43 22.3321 160.659 21.7469 160.846 21.1827C161.053 20.5976 161.157 20.0229 161.157 19.4586C161.157 18.9571 161.073 18.6018 160.908 18.3928C160.742 18.1629 160.544 18.048 160.317 18.048C159.964 18.048 159.621 18.2779 159.29 18.7376L159.072 18.6122C159.154 17.7764 159.414 17.0658 159.85 16.4807C160.306 15.8746 160.856 15.4044 161.499 15.07C162.163 14.7357 162.816 14.5685 163.46 14.5685C164.248 14.5685 164.933 14.8297 165.515 15.3522C166.095 15.8537 166.386 16.6792 166.386 17.8286C166.386 18.5182 166.282 19.2497 166.075 20.0229C165.888 20.7752 165.66 21.5275 165.39 22.2798C165.141 23.0322 164.913 23.7323 164.705 24.3801C164.519 25.0279 164.425 25.5817 164.425 26.0415C164.425 26.4385 164.497 26.7206 164.643 26.8878C164.808 27.0551 164.986 27.1386 165.172 27.1386C165.359 27.1386 165.535 27.0864 165.701 26.9819C165.888 26.8565 166.022 26.7206 166.106 26.5744L166.324 26.6371C166.324 27.4103 166.116 28.0895 165.701 28.6746C165.306 29.2389 164.808 29.6882 164.207 30.0225C163.605 30.336 162.983 30.4927 162.34 30.4927ZM171.963 30.4927C171.299 30.4927 170.667 30.3465 170.065 30.0539C169.484 29.7404 169.007 29.2597 168.633 28.6119C168.28 27.9641 168.104 27.1386 168.104 26.1355C168.104 25.5921 168.155 24.8816 168.26 24.0039C168.364 23.1262 168.498 22.1649 168.664 21.12C168.851 20.0751 169.038 19.0302 169.224 17.9853C168.809 18.0062 168.404 18.048 168.011 18.1107C167.637 18.1734 167.264 18.2466 166.89 18.3301L166.828 18.1107C167.243 17.6091 167.679 17.1808 168.135 16.8255C168.591 16.4702 169.069 16.1777 169.567 15.9478C169.836 14.5685 170.065 13.3773 170.252 12.3742C170.438 11.3502 170.532 10.7442 170.532 10.5561C170.532 10.2008 170.801 9.90828 171.341 9.67837C171.901 9.44849 172.524 9.33355 173.209 9.33355C173.811 9.33355 174.371 9.44849 174.889 9.67837C175.429 9.90828 175.792 10.2948 175.979 10.8382C175.854 10.9636 175.678 11.4338 175.45 12.2488C175.221 13.043 174.983 14.0147 174.734 15.1641C175.128 15.1849 175.532 15.2059 175.948 15.2268C176.363 15.2476 176.788 15.279 177.224 15.3208C177.266 15.4462 177.297 15.5821 177.317 15.7283C177.338 15.8746 177.348 16.0313 177.348 16.1985C177.348 16.512 177.297 16.8568 177.193 17.233C177.11 17.5883 177.006 17.9121 176.881 18.2047C176.383 18.1629 175.916 18.1212 175.481 18.0793C175.045 18.0167 174.62 17.9748 174.205 17.954C174.038 18.8525 173.883 19.7512 173.738 20.6498C173.613 21.5484 173.509 22.3634 173.426 23.0949C173.364 23.8263 173.333 24.4009 173.333 24.8189C173.333 25.6967 173.489 26.2818 173.8 26.5744C174.132 26.867 174.526 27.0132 174.983 27.0132C175.398 27.0132 175.772 26.9297 176.103 26.7625C176.435 26.5952 176.674 26.3968 176.819 26.1669L177.13 26.2609C177.006 27.1177 176.674 27.8701 176.134 28.5179C175.594 29.1448 174.952 29.6359 174.205 29.9912C173.458 30.3255 172.711 30.4927 171.963 30.4927Z" fill="#493D9E"/>
<path d="M50.9325 45.0612H49.1429L49.1544 43.8215H50.9325C51.4151 43.8215 51.8197 43.7143 52.1464 43.5C52.4733 43.2819 52.7202 42.97 52.8873 42.5644C53.0545 42.155 53.1382 41.6652 53.1382 41.0951V40.6645C53.1382 40.2245 53.0906 39.8361 52.9957 39.4994C52.9006 39.1626 52.7601 38.8795 52.5739 38.6499C52.3915 38.4203 52.1655 38.2462 51.8957 38.1276C51.626 38.009 51.3163 37.9496 50.9667 37.9496H49.1088V36.7041H50.9667C51.5215 36.7041 52.0268 36.7979 52.4827 36.9854C52.9425 37.1729 53.3395 37.4427 53.6738 37.7946C54.012 38.1429 54.2704 38.56 54.449 39.046C54.6313 39.5319 54.7226 40.0753 54.7226 40.676V41.0951C54.7226 41.6919 54.6313 42.2353 54.449 42.7251C54.2704 43.2111 54.012 43.6282 53.6738 43.9764C53.3395 44.3246 52.9405 44.5925 52.477 44.78C52.0135 44.9675 51.4986 45.0612 50.9325 45.0612ZM50.0206 36.7041V45.0612H48.4534V36.7041H50.0206ZM58.2451 45.176C57.7778 45.176 57.3579 45.0995 56.9856 44.9464C56.6133 44.7934 56.296 44.581 56.0338 44.3093C55.7755 44.0338 55.576 43.7143 55.4354 43.3508C55.2986 42.9834 55.2302 42.5893 55.2302 42.1684V41.9388C55.2302 41.4604 55.2986 41.0262 55.4354 40.6358C55.5722 40.2417 55.766 39.9031 56.0167 39.6199C56.2675 39.3367 56.5676 39.1186 56.9172 38.9655C57.2668 38.8125 57.6525 38.736 58.0741 38.736C58.5111 38.736 58.8967 38.8106 59.2311 38.9598C59.5654 39.1052 59.8448 39.3119 60.0689 39.5797C60.2931 39.8475 60.4621 40.169 60.5761 40.544C60.6901 40.9152 60.7471 41.3265 60.7471 41.778V42.4152H55.9141V41.3705H59.2654V41.2557C59.2577 41.0146 59.2122 40.7946 59.1285 40.5957C59.045 40.3929 58.9158 40.2321 58.741 40.1135C58.5662 39.9911 58.3402 39.9298 58.0627 39.9298C57.8386 39.9298 57.6429 39.9796 57.4757 40.0791C57.3123 40.1747 57.1756 40.3125 57.0654 40.4923C56.959 40.6683 56.8792 40.8789 56.826 41.1238C56.7729 41.3687 56.7462 41.6403 56.7462 41.9388V42.1684C56.7462 42.4286 56.7805 42.6697 56.8488 42.8916C56.921 43.1135 57.0255 43.3068 57.1622 43.4714C57.3029 43.632 57.4701 43.7583 57.6638 43.8502C57.8614 43.9381 58.0856 43.9821 58.3364 43.9821C58.6517 43.9821 58.9367 43.9209 59.1912 43.7984C59.4496 43.6722 59.6738 43.4866 59.8638 43.2417L60.6218 44.0338C60.4926 44.2251 60.3178 44.4088 60.0974 44.5849C59.8809 44.7609 59.6186 44.9043 59.3109 45.0153C59.0031 45.1225 58.6479 45.176 58.2451 45.176ZM62.8848 36.2449V45.0612H61.3745V36.2449H62.8848ZM65.4499 38.8508V45.0612H63.9397V38.8508H65.4499ZM63.837 37.2265C63.837 37.0007 63.913 36.8132 64.065 36.6639C64.2208 36.5147 64.4298 36.44 64.6919 36.44C64.9542 36.44 65.1612 36.5147 65.3132 36.6639C65.4689 36.8132 65.5468 37.0007 65.5468 37.2265C65.5468 37.4483 65.4689 37.634 65.3132 37.7832C65.1612 37.9324 64.9542 38.007 64.6919 38.007C64.4298 38.007 64.2208 37.9324 64.065 37.7832C63.913 37.634 63.837 37.4483 63.837 37.2265ZM68.9497 43.9821C69.1625 43.9821 69.3525 43.9401 69.5197 43.8558C69.6869 43.7717 69.8199 43.6531 69.9186 43.5C70.0212 43.3469 70.0763 43.1691 70.084 42.9662H71.503C71.4954 43.3871 71.3776 43.7641 71.1497 44.0969C70.9217 44.4299 70.6178 44.6939 70.2378 44.889C69.8616 45.0803 69.4399 45.176 68.9726 45.176C68.4976 45.176 68.0835 45.0957 67.7301 44.935C67.3768 44.7742 67.0823 44.5504 66.8467 44.2634C66.6149 43.9764 66.4402 43.6435 66.3224 43.2647C66.2084 42.8859 66.1514 42.4802 66.1514 42.0478V41.8641C66.1514 41.4317 66.2084 41.0262 66.3224 40.6473C66.4402 40.2685 66.6149 39.9356 66.8467 39.6486C67.0823 39.3616 67.3768 39.1377 67.7301 38.9771C68.0835 38.8163 68.4957 38.736 68.9668 38.736C69.4646 38.736 69.9016 38.8336 70.2777 39.0287C70.6577 39.2238 70.954 39.4994 71.1668 39.8552C71.3834 40.2111 71.4954 40.6301 71.503 41.1123H70.084C70.0763 40.8903 70.027 40.6914 69.9357 40.5153C69.8446 40.3393 69.7153 40.1978 69.5482 40.0906C69.381 39.9834 69.1777 39.9298 68.9384 39.9298C68.6838 39.9298 68.4711 39.9834 68.3001 40.0906C68.1329 40.1978 68.0018 40.345 67.9068 40.5326C67.8156 40.7162 67.751 40.9228 67.7131 41.1525C67.6788 41.3782 67.6617 41.6154 67.6617 41.8641V42.0478C67.6617 42.3003 67.6788 42.5414 67.7131 42.771C67.751 43.0007 67.8156 43.2073 67.9068 43.3909C68.0018 43.5708 68.1329 43.7143 68.3001 43.8215C68.4711 43.9286 68.6876 43.9821 68.9497 43.9821ZM73.635 38.8508V45.0612H72.1247V38.8508H73.635ZM72.0221 37.2265C72.0221 37.0007 72.0981 36.8132 72.2501 36.6639C72.4058 36.5147 72.6149 36.44 72.877 36.44C73.1392 36.44 73.3462 36.5147 73.4983 36.6639C73.654 36.8132 73.7319 37.0007 73.7319 37.2265C73.7319 37.4483 73.654 37.634 73.4983 37.7832C73.3462 37.9324 73.1392 38.007 72.877 38.007C72.6149 38.007 72.4058 37.9324 72.2501 37.7832C72.0981 37.634 72.0221 37.4483 72.0221 37.2265ZM74.3365 42.0191V41.8986C74.3365 41.4432 74.4011 41.0242 74.5303 40.6416C74.6594 40.2552 74.8476 39.9203 75.0945 39.6371C75.3415 39.3539 75.6435 39.1339 76.0007 38.9771C76.3578 38.8163 76.7644 38.736 77.2203 38.736C77.6839 38.736 78.0943 38.8163 78.4514 38.9771C78.8124 39.1339 79.1163 39.3539 79.3633 39.6371C79.6103 39.9203 79.7983 40.2552 79.9275 40.6416C80.0566 41.0242 80.1213 41.4432 80.1213 41.8986V42.0191C80.1213 42.4707 80.0566 42.8897 79.9275 43.2761C79.7983 43.6588 79.6103 43.9937 79.3633 44.2806C79.1163 44.5638 78.8142 44.7838 78.4571 44.9407C78.0999 45.0976 77.6915 45.176 77.2318 45.176C76.7758 45.176 76.3674 45.0976 76.0064 44.9407C75.6455 44.7838 75.3415 44.5638 75.0945 44.2806C74.8476 43.9937 74.6594 43.6588 74.5303 43.2761C74.4011 42.8897 74.3365 42.4707 74.3365 42.0191ZM75.8412 41.8986V42.0191C75.8412 42.2908 75.8677 42.5452 75.9209 42.7825C75.9741 43.0198 76.0558 43.2283 76.1659 43.4082C76.2761 43.588 76.4186 43.7296 76.5934 43.8329C76.772 43.9324 76.9847 43.9821 77.2318 43.9821C77.475 43.9821 77.6839 43.9324 77.8587 43.8329C78.0335 43.7296 78.176 43.588 78.2861 43.4082C78.4001 43.2283 78.4837 43.0198 78.5368 42.7825C78.59 42.5452 78.6167 42.2908 78.6167 42.0191V41.8986C78.6167 41.6307 78.59 41.3801 78.5368 41.1467C78.4837 40.9094 78.4001 40.7009 78.2861 40.521C78.176 40.3373 78.0315 40.1938 77.8529 40.0906C77.6782 39.9834 77.4673 39.9298 77.2203 39.9298C76.9771 39.9298 76.7682 39.9834 76.5934 40.0906C76.4186 40.1938 76.2761 40.3373 76.1659 40.521C76.0558 40.7009 75.9741 40.9094 75.9209 41.1467C75.8677 41.3801 75.8412 41.6307 75.8412 41.8986ZM84.419 43.5861V38.8508H85.935V45.0612H84.5101L84.419 43.5861ZM84.6128 42.3003L85.0801 42.2889C85.0801 42.706 85.0345 43.0906 84.9434 43.4426C84.8521 43.7946 84.7096 44.1007 84.5159 44.361C84.3259 44.6174 84.0846 44.8183 83.7921 44.9637C83.4995 45.1052 83.1537 45.176 82.7548 45.176C82.4509 45.176 82.1735 45.1339 81.9227 45.0498C81.672 44.9617 81.4553 44.8259 81.273 44.6423C81.0944 44.4548 80.9557 44.2156 80.857 43.9247C80.7581 43.6301 80.7087 43.2761 80.7087 42.8629V38.8508H82.2134V42.8744C82.2134 43.081 82.2361 43.2532 82.2817 43.3909C82.3312 43.5287 82.3977 43.6416 82.4812 43.7296C82.5686 43.8138 82.6693 43.875 82.7833 43.9132C82.901 43.9477 83.0264 43.965 83.1595 43.965C83.5242 43.965 83.8111 43.8922 84.02 43.7468C84.2328 43.5976 84.3848 43.3986 84.476 43.1499C84.5671 42.8973 84.6128 42.6142 84.6128 42.3003ZM90.1928 43.3622C90.1928 43.2321 90.1586 43.1155 90.0902 43.0121C90.0218 42.9088 89.8927 42.815 89.7027 42.7309C89.5165 42.6428 89.2429 42.5606 88.8819 42.484C88.5628 42.4152 88.2684 42.3291 87.9985 42.2258C87.7288 42.1225 87.497 41.998 87.3033 41.8527C87.1095 41.7035 86.9575 41.5293 86.8474 41.3304C86.741 41.1276 86.6878 40.8941 86.6878 40.6301C86.6878 40.3737 86.7428 40.1327 86.853 39.9069C86.9632 39.6773 87.1229 39.4764 87.3318 39.3042C87.5407 39.1282 87.7954 38.9904 88.0955 38.891C88.3956 38.7876 88.7338 38.736 89.1099 38.736C89.6343 38.736 90.0846 38.8221 90.4607 38.9942C90.8406 39.1664 91.1313 39.4037 91.3327 39.706C91.534 40.0045 91.6347 40.3412 91.6347 40.7162H90.1302C90.1302 40.5517 90.0921 40.4024 90.0162 40.2685C89.9439 40.1346 89.8318 40.0274 89.6799 39.9471C89.5279 39.8629 89.336 39.8208 89.1043 39.8208C88.8953 39.8208 88.7186 39.8552 88.5742 39.9242C88.4336 39.993 88.3272 40.0829 88.255 40.1938C88.1829 40.3048 88.1468 40.4273 88.1468 40.5612C88.1468 40.6607 88.1658 40.7506 88.2038 40.831C88.2456 40.9076 88.312 40.9783 88.4033 41.0433C88.4944 41.1084 88.618 41.1677 88.7737 41.2213C88.9333 41.2749 89.129 41.3265 89.3607 41.3763C89.8205 41.4681 90.2213 41.5905 90.5633 41.7436C90.909 41.8928 91.1788 42.0919 91.3726 42.3406C91.5663 42.5893 91.6632 42.9069 91.6632 43.2934C91.6632 43.5689 91.6044 43.8215 91.4866 44.0511C91.3688 44.2768 91.1978 44.4739 90.9736 44.6423C90.7495 44.8106 90.4816 44.9426 90.1701 45.0383C89.8585 45.1301 89.507 45.176 89.1157 45.176C88.5496 45.176 88.0708 45.0746 87.6794 44.8718C87.2881 44.6652 86.9917 44.405 86.7904 44.0912C86.5889 43.7736 86.4883 43.4445 86.4883 43.104H87.9302C87.9417 43.345 88.0062 43.5383 88.124 43.6837C88.2417 43.8291 88.39 43.9343 88.5685 43.9994C88.7509 44.0606 88.9427 44.0912 89.1442 44.0912C89.3722 44.0912 89.564 44.0606 89.7198 43.9994C89.8755 43.9343 89.9933 43.8482 90.0732 43.741C90.1529 43.6301 90.1928 43.5039 90.1928 43.3622ZM98.1723 36.7041V45.0612H96.6111V36.7041H98.1723ZM100.749 36.7041V37.9496H94.0636V36.7041H100.749ZM100.054 42.0191V41.8986C100.054 41.4432 100.119 41.0242 100.248 40.6416C100.377 40.2552 100.565 39.9203 100.812 39.6371C101.059 39.3539 101.361 39.1339 101.718 38.9771C102.076 38.8163 102.482 38.736 102.937 38.736C103.401 38.736 103.812 38.8163 104.169 38.9771C104.53 39.1339 104.834 39.3539 105.081 39.6371C105.327 39.9203 105.516 40.2552 105.645 40.6416C105.774 41.0242 105.839 41.4432 105.839 41.8986V42.0191C105.839 42.4707 105.774 42.8897 105.645 43.2761C105.516 43.6588 105.327 43.9937 105.081 44.2806C104.834 44.5638 104.532 44.7838 104.175 44.9407C103.818 45.0976 103.409 45.176 102.949 45.176C102.493 45.176 102.084 45.0976 101.724 44.9407C101.363 44.7838 101.059 44.5638 100.812 44.2806C100.565 43.9937 100.377 43.6588 100.248 43.2761C100.119 42.8897 100.054 42.4707 100.054 42.0191ZM101.558 41.8986V42.0191C101.558 42.2908 101.585 42.5452 101.638 42.7825C101.691 43.0198 101.773 43.2283 101.883 43.4082C101.994 43.588 102.136 43.7296 102.311 43.8329C102.489 43.9324 102.702 43.9821 102.949 43.9821C103.192 43.9821 103.401 43.9324 103.576 43.8329C103.751 43.7296 103.894 43.588 104.003 43.4082C104.117 43.2283 104.201 43.0198 104.254 42.7825C104.308 42.5452 104.334 42.2908 104.334 42.0191V41.8986C104.334 41.6307 104.308 41.3801 104.254 41.1467C104.201 40.9094 104.117 40.7009 104.003 40.521C103.894 40.3373 103.749 40.1938 103.571 40.0906C103.396 39.9834 103.184 39.9298 102.937 39.9298C102.694 39.9298 102.486 39.9834 102.311 40.0906C102.136 40.1938 101.994 40.3373 101.883 40.521C101.773 40.7009 101.691 40.9094 101.638 41.1467C101.585 41.3801 101.558 41.6307 101.558 41.8986ZM107.971 40.0446V47.449H106.46V38.8508H107.856L107.971 40.0446ZM111.932 41.8928V42.0134C111.932 42.4649 111.878 42.8839 111.772 43.2704C111.669 43.6531 111.517 43.9879 111.316 44.2749C111.115 44.558 110.864 44.78 110.564 44.9407C110.268 45.0976 109.925 45.176 109.538 45.176C109.158 45.176 108.828 45.1034 108.546 44.9579C108.265 44.8087 108.027 44.5982 107.834 44.3265C107.64 44.0549 107.485 43.7392 107.367 43.3795C107.252 43.0159 107.168 42.6199 107.11 42.1913V41.8067C107.168 41.3514 107.252 40.9381 107.367 40.567C107.485 40.192 107.64 39.8686 107.834 39.597C108.027 39.3214 108.263 39.109 108.541 38.9598C108.822 38.8106 109.151 38.736 109.526 38.736C109.918 38.736 110.262 38.8106 110.558 38.9598C110.858 39.109 111.111 39.3234 111.316 39.6027C111.521 39.882 111.675 40.2149 111.778 40.6014C111.88 40.9879 111.932 41.4183 111.932 41.8928ZM110.421 42.0134V41.8928C110.421 41.6174 110.397 41.3629 110.347 41.1294C110.298 40.8922 110.222 40.6856 110.12 40.5096C110.017 40.3297 109.883 40.19 109.721 40.0906C109.557 39.9911 109.359 39.9413 109.128 39.9413C108.896 39.9413 108.697 39.9796 108.529 40.0561C108.362 40.1327 108.225 40.2417 108.119 40.3833C108.013 40.5248 107.929 40.6932 107.868 40.8884C107.812 41.0797 107.774 41.2921 107.754 41.5255V42.4783C107.788 42.7614 107.855 43.0159 107.954 43.2417C108.053 43.4674 108.197 43.6473 108.386 43.7813C108.581 43.9152 108.831 43.9821 109.139 43.9821C109.371 43.9821 109.568 43.9305 109.732 43.8271C109.895 43.7239 110.028 43.5822 110.13 43.4024C110.233 43.2187 110.307 43.0083 110.353 42.771C110.399 42.5338 110.421 42.2812 110.421 42.0134ZM114.07 40.0446V47.449H112.559V38.8508H113.955L114.07 40.0446ZM118.03 41.8928V42.0134C118.03 42.4649 117.977 42.8839 117.871 43.2704C117.768 43.6531 117.616 43.9879 117.415 44.2749C117.213 44.558 116.962 44.78 116.663 44.9407C116.366 45.0976 116.024 45.176 115.637 45.176C115.256 45.176 114.927 45.1034 114.645 44.9579C114.363 44.8087 114.126 44.5982 113.933 44.3265C113.739 44.0549 113.583 43.7392 113.466 43.3795C113.351 43.0159 113.266 42.6199 113.209 42.1913V41.8067C113.266 41.3514 113.351 40.9381 113.466 40.567C113.583 40.192 113.739 39.8686 113.933 39.597C114.126 39.3214 114.362 39.109 114.64 38.9598C114.921 38.8106 115.25 38.736 115.625 38.736C116.017 38.736 116.36 38.8106 116.657 38.9598C116.957 39.109 117.21 39.3234 117.415 39.6027C117.62 39.882 117.774 40.2149 117.877 40.6014C117.979 40.9879 118.03 41.4183 118.03 41.8928ZM116.52 42.0134V41.8928C116.52 41.6174 116.496 41.3629 116.446 41.1294C116.396 40.8922 116.32 40.6856 116.218 40.5096C116.115 40.3297 115.982 40.19 115.82 40.0906C115.656 39.9911 115.458 39.9413 115.226 39.9413C114.995 39.9413 114.795 39.9796 114.628 40.0561C114.461 40.1327 114.324 40.2417 114.218 40.3833C114.112 40.5248 114.028 40.6932 113.967 40.8884C113.91 41.0797 113.872 41.2921 113.853 41.5255V42.4783C113.887 42.7614 113.954 43.0159 114.052 43.2417C114.151 43.4674 114.295 43.6473 114.485 43.7813C114.68 43.9152 114.93 43.9821 115.238 43.9821C115.469 43.9821 115.667 43.9305 115.83 43.8271C115.994 43.7239 116.127 43.5822 116.229 43.4024C116.332 43.2187 116.406 43.0083 116.452 42.771C116.498 42.5338 116.52 42.2812 116.52 42.0134ZM120.259 38.8508V45.0612H118.749V38.8508H120.259ZM118.646 37.2265C118.646 37.0007 118.722 36.8132 118.875 36.6639C119.03 36.5147 119.239 36.44 119.501 36.44C119.764 36.44 119.971 36.5147 120.123 36.6639C120.278 36.8132 120.356 37.0007 120.356 37.2265C120.356 37.4483 120.278 37.634 120.123 37.7832C119.971 37.9324 119.764 38.007 119.501 38.007C119.239 38.007 119.03 37.9324 118.875 37.7832C118.722 37.634 118.646 37.4483 118.646 37.2265ZM122.705 40.1767V45.0612H121.2V38.8508H122.614L122.705 40.1767ZM122.465 41.7322H122.02C122.024 41.2806 122.086 40.8712 122.203 40.5039C122.321 40.1365 122.486 39.8208 122.699 39.5568C122.915 39.2927 123.172 39.0899 123.469 38.9484C123.764 38.8067 124.095 38.736 124.46 38.736C124.757 38.736 125.024 38.778 125.263 38.8623C125.504 38.9464 125.708 39.0803 125.879 39.264C126.054 39.4477 126.187 39.6888 126.278 39.9872C126.373 40.2819 126.421 40.6454 126.421 41.0778V45.0612H124.904V41.0664C124.904 40.7832 124.863 40.5593 124.779 40.3948C124.699 40.2303 124.581 40.1135 124.426 40.0446C124.274 39.9758 124.085 39.9413 123.862 39.9413C123.63 39.9413 123.427 39.9892 123.252 40.0848C123.081 40.1767 122.937 40.3048 122.819 40.4694C122.705 40.634 122.618 40.8233 122.556 41.0377C122.496 41.2519 122.465 41.4835 122.465 41.7322ZM131.202 38.8508H132.571V44.8718C132.571 45.4344 132.449 45.9107 132.206 46.301C131.967 46.6952 131.63 46.9937 131.197 47.1964C130.764 47.403 130.261 47.5064 129.687 47.5064C129.44 47.5064 129.172 47.4719 128.884 47.403C128.599 47.3342 128.322 47.2251 128.057 47.0759C127.794 46.9305 127.576 46.741 127.401 46.5077L128.079 45.6123C128.284 45.8533 128.517 46.035 128.775 46.1575C129.033 46.2838 129.313 46.3469 129.613 46.3469C129.917 46.3469 130.175 46.2895 130.387 46.1747C130.604 46.0637 130.77 45.8993 130.883 45.6811C131.001 45.4669 131.06 45.2028 131.06 44.889V40.2685L131.202 38.8508ZM127.036 42.0306V41.9101C127.036 41.4356 127.094 41.0051 127.208 40.6186C127.321 40.2283 127.485 39.8935 127.698 39.6142C127.914 39.3348 128.175 39.1186 128.479 38.9655C128.786 38.8125 129.132 38.736 129.516 38.736C129.922 38.736 130.265 38.8106 130.542 38.9598C130.823 39.109 131.055 39.3214 131.237 39.597C131.423 39.8724 131.567 40.1996 131.67 40.5784C131.776 40.9534 131.858 41.3667 131.915 41.8183V42.1454C131.862 42.5855 131.776 42.9892 131.659 43.3565C131.545 43.7239 131.393 44.0453 131.202 44.3208C131.013 44.5925 130.777 44.8029 130.496 44.9522C130.215 45.1014 129.884 45.176 129.504 45.176C129.125 45.176 128.782 45.0976 128.479 44.9407C128.175 44.7838 127.914 44.5638 127.698 44.2806C127.485 43.9975 127.321 43.6645 127.208 43.2819C127.094 42.8993 127.036 42.4822 127.036 42.0306ZM128.541 41.9101V42.0306C128.541 42.2985 128.567 42.5491 128.621 42.7825C128.674 43.0159 128.756 43.2225 128.866 43.4024C128.976 43.5784 129.115 43.7163 129.282 43.8157C129.45 43.9152 129.649 43.965 129.881 43.965C130.192 43.965 130.447 43.8999 130.644 43.7697C130.845 43.6358 130.997 43.4541 131.1 43.2245C131.206 42.9911 131.275 42.7289 131.306 42.4382V41.537C131.286 41.3074 131.244 41.0951 131.18 40.8999C131.119 40.7047 131.034 40.5364 130.923 40.3948C130.813 40.2532 130.672 40.1422 130.502 40.0619C130.331 39.9816 130.128 39.9413 129.892 39.9413C129.664 39.9413 129.464 39.993 129.293 40.0963C129.123 40.1958 128.982 40.3355 128.872 40.5153C128.762 40.6952 128.678 40.9037 128.621 41.1409C128.567 41.3782 128.541 41.6346 128.541 41.9101ZM136.851 43.3622C136.851 43.2321 136.817 43.1155 136.749 43.0121C136.681 42.9088 136.551 42.815 136.362 42.7309C136.175 42.6428 135.901 42.5606 135.541 42.484C135.222 42.4152 134.927 42.3291 134.657 42.2258C134.387 42.1225 134.156 41.998 133.962 41.8527C133.768 41.7035 133.616 41.5293 133.506 41.3304C133.4 41.1276 133.346 40.8941 133.346 40.6301C133.346 40.3737 133.402 40.1327 133.512 39.9069C133.621 39.6773 133.781 39.4764 133.99 39.3042C134.199 39.1282 134.454 38.9904 134.754 38.891C135.054 38.7876 135.392 38.736 135.768 38.736C136.292 38.736 136.743 38.8221 137.119 38.9942C137.499 39.1664 137.789 39.4037 137.991 39.706C138.192 40.0045 138.293 40.3412 138.293 40.7162H136.789C136.789 40.5517 136.751 40.4024 136.675 40.2685C136.603 40.1346 136.49 40.0274 136.338 39.9471C136.186 39.8629 135.995 39.8208 135.762 39.8208C135.553 39.8208 135.377 39.8552 135.232 39.9242C135.092 39.993 134.986 40.0829 134.913 40.1938C134.841 40.3048 134.805 40.4273 134.805 40.5612C134.805 40.6607 134.824 40.7506 134.863 40.831C134.904 40.9076 134.971 40.9783 135.062 41.0433C135.153 41.1084 135.276 41.1677 135.432 41.2213C135.592 41.2749 135.788 41.3265 136.019 41.3763C136.479 41.4681 136.88 41.5905 137.221 41.7436C137.568 41.8928 137.837 42.0919 138.031 42.3406C138.225 42.5893 138.321 42.9069 138.321 43.2934C138.321 43.5689 138.263 43.8215 138.145 44.0511C138.027 44.2768 137.857 44.4739 137.632 44.6423C137.408 44.8106 137.14 44.9426 136.828 45.0383C136.517 45.1301 136.165 45.176 135.774 45.176C135.208 45.176 134.729 45.0746 134.337 44.8718C133.946 44.6652 133.65 44.405 133.448 44.0912C133.247 43.7736 133.147 43.4445 133.147 43.104H134.588C134.6 43.345 134.664 43.5383 134.783 43.6837C134.901 43.8291 135.048 43.9343 135.227 43.9994C135.409 44.0606 135.601 44.0912 135.802 44.0912C136.031 44.0912 136.222 44.0606 136.378 43.9994C136.534 43.9343 136.651 43.8482 136.731 43.741C136.811 43.6301 136.851 43.5039 136.851 43.3622ZM143.122 36.7041V45.0612H141.554V36.7041H143.122ZM146.467 40.3144V41.56H142.711V40.3144H146.467ZM146.905 36.7041V37.9496H142.711V36.7041H146.905ZM146.998 42.0191V41.8986C146.998 41.4432 147.062 41.0242 147.191 40.6416C147.321 40.2552 147.508 39.9203 147.755 39.6371C148.003 39.3539 148.304 39.1339 148.662 38.9771C149.019 38.8163 149.426 38.736 149.881 38.736C150.345 38.736 150.755 38.8163 151.112 38.9771C151.473 39.1339 151.778 39.3539 152.025 39.6371C152.271 39.9203 152.459 40.2552 152.589 40.6416C152.717 41.0242 152.782 41.4432 152.782 41.8986V42.0191C152.782 42.4707 152.717 42.8897 152.589 43.2761C152.459 43.6588 152.271 43.9937 152.025 44.2806C151.778 44.5638 151.475 44.7838 151.118 44.9407C150.761 45.0976 150.353 45.176 149.892 45.176C149.436 45.176 149.028 45.0976 148.667 44.9407C148.306 44.7838 148.003 44.5638 147.755 44.2806C147.508 43.9937 147.321 43.6588 147.191 43.2761C147.062 42.8897 146.998 42.4707 146.998 42.0191ZM148.502 41.8986V42.0191C148.502 42.2908 148.529 42.5452 148.581 42.7825C148.635 43.0198 148.716 43.2283 148.826 43.4082C148.937 43.588 149.079 43.7296 149.254 43.8329C149.432 43.9324 149.645 43.9821 149.892 43.9821C150.136 43.9821 150.345 43.9324 150.52 43.8329C150.694 43.7296 150.837 43.588 150.947 43.4082C151.061 43.2283 151.144 43.0198 151.198 42.7825C151.251 42.5452 151.278 42.2908 151.278 42.0191V41.8986C151.278 41.6307 151.251 41.3801 151.198 41.1467C151.144 40.9094 151.061 40.7009 150.947 40.521C150.837 40.3373 150.692 40.1938 150.514 40.0906C150.339 39.9834 150.128 39.9298 149.881 39.9298C149.638 39.9298 149.429 39.9834 149.254 40.0906C149.079 40.1938 148.937 40.3373 148.826 40.521C148.716 40.7009 148.635 40.9094 148.581 41.1467C148.529 41.3801 148.502 41.6307 148.502 41.8986ZM153.141 42.0191V41.8986C153.141 41.4432 153.206 41.0242 153.336 40.6416C153.464 40.2552 153.653 39.9203 153.9 39.6371C154.147 39.3539 154.448 39.1339 154.805 38.9771C155.163 38.8163 155.57 38.736 156.025 38.736C156.489 38.736 156.9 38.8163 157.257 38.9771C157.617 39.1339 157.921 39.3539 158.168 39.6371C158.415 39.9203 158.604 40.2552 158.732 40.6416C158.862 41.0242 158.927 41.4432 158.927 41.8986V42.0191C158.927 42.4707 158.862 42.8897 158.732 43.2761C158.604 43.6588 158.415 43.9937 158.168 44.2806C157.921 44.5638 157.619 44.7838 157.262 44.9407C156.905 45.0976 156.497 45.176 156.037 45.176C155.581 45.176 155.172 45.0976 154.811 44.9407C154.45 44.7838 154.147 44.5638 153.9 44.2806C153.653 43.9937 153.464 43.6588 153.336 43.2761C153.206 42.8897 153.141 42.4707 153.141 42.0191ZM154.646 41.8986V42.0191C154.646 42.2908 154.673 42.5452 154.726 42.7825C154.779 43.0198 154.861 43.2283 154.971 43.4082C155.082 43.588 155.224 43.7296 155.399 43.8329C155.577 43.9324 155.79 43.9821 156.037 43.9821C156.28 43.9821 156.489 43.9324 156.664 43.8329C156.838 43.7296 156.981 43.588 157.091 43.4082C157.205 43.2283 157.289 43.0198 157.342 42.7825C157.395 42.5452 157.422 42.2908 157.422 42.0191V41.8986C157.422 41.6307 157.395 41.3801 157.342 41.1467C157.289 40.9094 157.205 40.7009 157.091 40.521C156.981 40.3373 156.836 40.1938 156.658 40.0906C156.483 39.9834 156.272 39.9298 156.025 39.9298C155.782 39.9298 155.573 39.9834 155.399 40.0906C155.224 40.1938 155.082 40.3373 154.971 40.521C154.861 40.7009 154.779 40.9094 154.726 41.1467C154.673 41.3801 154.646 41.6307 154.646 41.8986ZM163.252 43.741V36.2449H164.769V45.0612H163.401L163.252 43.741ZM159.291 42.0306V41.9101C159.291 41.4356 159.345 41.0051 159.451 40.6186C159.562 40.2283 159.721 39.8935 159.93 39.6142C160.139 39.3348 160.392 39.1186 160.688 38.9655C160.988 38.8125 161.328 38.736 161.709 38.736C162.076 38.736 162.398 38.8106 162.671 38.9598C162.949 39.109 163.184 39.3214 163.378 39.597C163.575 39.8724 163.734 40.1996 163.851 40.5784C163.969 40.9534 164.055 41.3667 164.107 41.8183V42.1454C164.055 42.5855 163.969 42.9892 163.851 43.3565C163.734 43.7239 163.575 44.0453 163.378 44.3208C163.184 44.5925 162.949 44.8029 162.671 44.9522C162.394 45.1014 162.069 45.176 161.697 45.176C161.32 45.176 160.982 45.0976 160.682 44.9407C160.386 44.7838 160.133 44.5638 159.925 44.2806C159.719 43.9975 159.562 43.6645 159.451 43.2819C159.345 42.8993 159.291 42.4822 159.291 42.0306ZM160.802 41.9101V42.0306C160.802 42.2985 160.824 42.5491 160.87 42.7825C160.916 43.0159 160.99 43.2225 161.093 43.4024C161.195 43.5784 161.326 43.7163 161.486 43.8157C161.649 43.9152 161.847 43.965 162.078 43.965C162.375 43.965 162.618 43.8999 162.808 43.7697C163.002 43.6358 163.152 43.4541 163.258 43.2245C163.365 42.9911 163.433 42.7289 163.463 42.4382V41.537C163.449 41.3074 163.409 41.0951 163.344 40.8999C163.283 40.7047 163.196 40.5364 163.082 40.3948C162.971 40.2532 162.835 40.1422 162.671 40.0619C162.508 39.9816 162.315 39.9413 162.09 39.9413C161.858 39.9413 161.661 39.993 161.497 40.0963C161.334 40.1958 161.201 40.3355 161.099 40.5153C160.996 40.6952 160.92 40.9037 160.87 41.1409C160.824 41.3782 160.802 41.6346 160.802 41.9101Z" fill="#09122C"/>
<path d="M40.4909 24.8275C41.075 29.3349 38.5372 33.4206 35.2815 36.2358C27.3406 43.0092 14.0391 45.0746 5.12801 39.1695C3.32583 37.9353 1.86266 36.3078 0.881592 34.315C1.30471 36.5733 2.71825 38.5969 4.46756 40.0476C13.105 46.9581 28.3743 44.4506 36.0765 37.1248C39.3492 34.0828 41.8031 29.3675 40.4909 24.8275Z" fill="#09122C"/>
<path d="M36.2218 27.2339C32.6813 28.6611 26.9775 30.1508 20.4649 31.2345C16.5078 31.8923 12.7862 32.3105 9.6215 32.4907C9.45959 31.6885 8.83139 29.7086 6.47824 28.38C3.46581 26.6813 2.44986 22.3831 8.95532 20.723C15.2278 19.1253 12.4056 14.8991 11.718 10.9975C11.0826 7.39357 14.8612 2.10308 20.1462 5.4956C24.2461 8.12644 24.32 10.123 24.2937 13.0588C24.2675 15.9948 28.4555 17.7223 26.4259 21.2636C24.4197 24.7643 28.4483 27.133 36.2218 27.2339Z" fill="#B2A5FF"/>
<path d="M6.1707 33.8911C8.67902 33.8201 11.1697 33.5355 13.6485 33.1727C21.049 31.96 28.4447 30.2976 35.3811 27.3605C36.8076 26.6676 40.2878 25.2239 40.5241 23.4741C40.6269 22.7204 39.8023 22.1838 39.2692 22.053C37.9756 21.6849 36.7178 21.7187 35.4174 21.7656C32.9121 21.8941 30.4412 22.2706 27.9932 22.7853C30.3301 22.6302 37.9121 21.8752 39.5088 23.2795C39.5927 24.0285 37.1481 25.2411 35.7148 25.8769C33.6624 25.9246 31.5981 25.844 29.6147 25.3372C28.3628 24.9926 26.7956 24.3854 26.4022 23.0773C26.1033 22.1591 26.7254 21.2206 27.0366 20.3355C27.3558 19.3959 27.2505 18.2991 26.8035 17.4254C26.016 15.7739 24.1344 14.3338 24.1821 12.6332C24.1391 11.035 23.9565 9.24739 22.9536 7.8912C21.9689 6.52815 20.6126 5.61024 19.1886 4.81502C17.713 4.00623 15.8641 3.60742 14.2165 4.20683C11.7369 5.09173 10.1939 7.70636 10.165 10.2929C10.1546 11.9125 10.9304 13.4567 11.416 14.9439C11.8476 16.2357 12.334 17.7369 11.6361 18.9569C10.9362 20.1676 9.38492 20.6996 8.10612 21.1302C6.59634 21.7048 5.06191 22.5028 4.20409 23.9904C3.25906 25.5773 3.91335 27.5965 5.23357 28.7159C5.80046 29.2658 6.60477 29.6057 7.24786 29.9749C8.29286 30.6113 9.23048 31.5364 9.6663 32.6912C8.4915 32.8387 7.31344 32.9606 6.13301 33.0537C5.22843 33.1056 0.434631 33.4121 0.547358 32.1422C0.840768 31.3434 1.70669 30.8231 2.40027 30.3328C2.91307 29.9837 3.45367 29.673 3.99275 29.3558C2.80471 29.8439 0.555701 30.6952 0.0427561 32.007C-0.217234 32.8656 0.766361 33.3813 1.42957 33.5375C2.97953 33.9435 4.60154 33.9146 6.1707 33.8911ZM22.0365 8.81949C22.3781 9.31214 22.6387 9.86518 22.7794 10.5006C22.9553 11.2262 23.0166 12.0373 23.0677 12.838C23.1466 14.4817 24.4503 15.7602 25.3264 16.9667C26.026 17.905 26.3986 18.9229 26.0378 20.0196C25.9708 20.2618 25.8359 20.5212 25.7379 20.7531C24.3314 23.7831 26.6727 25.614 29.394 26.2204C30.8162 26.5588 32.2713 26.6814 33.7256 26.6894C32.0064 27.3556 30.2622 27.9559 28.501 28.5054C26.6474 28.1277 24.4223 27.3835 23.449 25.6971C23.071 25.0351 23.1212 24.2322 23.1984 23.489C23.4369 21.1741 24.8726 19.1248 23.4295 16.865C23.0184 16.1584 22.3916 15.5448 21.9604 14.851C21.1261 13.5638 20.544 11.9165 20.7733 10.4054C20.8851 9.64654 21.3118 8.88482 22.0365 8.81949ZM21.2995 7.95721C20.4854 8.38948 19.9928 9.33207 19.9282 10.2936C19.7611 12.2132 20.5544 14.0592 21.6513 15.5741C22.2065 16.3082 22.8972 17.0071 23.2235 17.8851C23.4087 18.36 23.4558 18.8658 23.4134 19.3753C23.1874 21.4079 21.7968 23.5928 22.7425 26.0588C23.5281 27.5501 25.0124 28.4604 26.575 29.0847C25.8377 29.2992 25.0987 29.5079 24.3577 29.7083C24.0283 29.7958 23.6985 29.8819 23.3685 29.9674C21.5313 29.2192 19.1398 27.9045 18.8585 25.8185C18.7852 25.1804 19.0261 24.5002 19.3608 23.9339L19.5765 23.5317C20.2933 22.16 20.9629 20.767 21.1295 19.1579C21.2822 17.8818 20.8742 16.5561 20.1792 15.5003C19.1504 13.6481 17.7857 11.2954 18.5832 9.17574C18.9158 8.36298 19.6221 7.73119 20.4395 7.23403C20.7447 7.45884 21.0337 7.69877 21.2995 7.95721ZM18.3863 5.98025C18.438 6.00621 18.4896 6.03187 18.5405 6.05929C18.8124 6.20701 19.083 6.36006 19.3495 6.5182C17.3518 7.97044 16.7176 10.1359 17.7889 12.651C18.2659 13.8193 18.9079 14.859 19.5248 15.8954C20.1548 16.8473 20.4788 17.9357 20.3396 19.0782C20.1488 20.7843 19.2323 22.4199 18.3798 23.915C16.9251 26.6977 19.2435 29.0266 21.6219 30.408C20.4535 30.6959 19.2809 30.9691 18.1046 31.2244C17.583 30.994 17.0554 30.6834 16.5831 30.3358C14.4517 28.8393 13.4673 26.2312 14.6209 23.7974C15.2101 22.6438 16.264 21.8563 17.148 20.8853C18.9296 19.0508 18.7785 16.9151 17.575 14.8028C16.9162 13.6748 16.123 12.6257 15.6743 11.3932C14.9675 9.72148 14.9753 7.52593 16.7039 6.533C17.2052 6.2265 17.7898 6.04999 18.3863 5.98025ZM15.1325 6.14178C15.5319 5.87917 15.989 5.70427 16.4675 5.58668C13.8065 7.34512 14.0564 10.5656 15.6539 13.5977C15.9435 14.1674 16.341 14.7713 16.6397 15.3249C19.0126 19.6111 15.5798 20.2215 13.9125 23.4458C12.4926 26.7746 14.105 29.8257 16.9517 31.4683C15.9951 31.6657 15.036 31.8507 14.0745 32.0212C14.0125 31.819 13.9394 31.6221 13.8593 31.4198C13.3693 30.2017 12.5815 29.1354 11.6714 28.2166C11.3268 27.8755 10.891 27.5092 10.6112 27.1246C8.83778 24.9415 10.9366 22.9095 12.9336 21.9746C15.9114 20.7785 15.877 17.8554 15.0076 15.1997C14.6238 13.8475 13.8716 12.6329 13.5501 11.2788C13.1247 9.44741 13.4428 7.19353 15.1325 6.14178ZM7.70046 29.2122C7.02634 28.8076 6.38461 28.5676 5.83568 28.0389C4.81948 27.1486 4.29591 25.6723 5.02398 24.4584C5.95665 22.8899 7.87519 22.2445 9.53072 21.6908C11.0773 21.143 12.7407 20.0493 13.0211 18.2458C13.337 16.194 12.3722 14.2619 11.8401 12.3744C11.6359 11.6828 11.4501 11.037 11.4827 10.3163C11.5343 8.77198 12.3135 7.1258 13.5405 6.18022C12.4686 7.5659 12.1823 9.5075 12.6828 11.4874C13.0341 12.8786 13.8385 14.0903 14.2406 15.4523C14.8335 17.2112 15.2334 19.6278 13.4752 20.8141C12.9306 21.1666 12.2139 21.4386 11.6448 21.812C10.4809 22.5444 9.29135 23.6789 9.14351 25.1457C8.9699 26.6788 10.005 27.8974 11.0067 28.8703C11.8716 29.8226 12.6195 30.958 12.9281 32.2166C12.1418 32.3459 11.3544 32.4645 10.5653 32.5722C10.4805 32.3156 10.3745 32.0702 10.2468 31.8249C9.6728 30.7267 8.74057 29.8382 7.70046 29.2122Z" fill="#09122C"/>
</svg>
